<svg width="199" height="201" viewBox="0 0 199 201" fill="none" xmlns="http://www.w3.org/2000/svg">
<ellipse cx="99.5" cy="100.5" rx="99.5" ry="100.5" fill="black"/>
<path d="M69.7875 77.6875H62.9625C61.0714 77.6875 59.55 79.2131 59.55 81.1094V95.9375H56.1375C55.5119 95.9375 55 96.4508 55 97.0781V103.922C55 104.549 55.5119 105.062 56.1375 105.062H59.55V119.891C59.55 121.787 61.0714 123.312 62.9625 123.312H69.7875C71.6786 123.312 73.2 121.787 73.2 119.891V81.1094C73.2 79.2131 71.6786 77.6875 69.7875 77.6875ZM144.863 95.9375H141.45V81.1094C141.45 79.2131 139.929 77.6875 138.038 77.6875H131.213C129.321 77.6875 127.8 79.2131 127.8 81.1094V119.891C127.8 121.787 129.321 123.312 131.213 123.312H138.038C139.929 123.312 141.45 121.787 141.45 119.891V105.062H144.863C145.488 105.062 146 104.549 146 103.922V97.0781C146 96.4508 145.488 95.9375 144.863 95.9375ZM119.838 68.5625H113.013C111.121 68.5625 109.6 70.0881 109.6 71.9844V95.9375H91.4V71.9844C91.4 70.0881 89.8786 68.5625 87.9875 68.5625H81.1625C79.2714 68.5625 77.75 70.0881 77.75 71.9844V129.016C77.75 130.912 79.2714 132.438 81.1625 132.438H87.9875C89.8786 132.438 91.4 130.912 91.4 129.016V105.062H109.6V129.016C109.6 130.912 111.121 132.438 113.013 132.438H119.838C121.729 132.438 123.25 130.912 123.25 129.016V71.9844C123.25 70.0881 121.729 68.5625 119.838 68.5625Z" fill="white"/>
</svg>
