<svg width="22" height="22" viewBox="0 0 22 22" fill="none" xmlns="http://www.w3.org/2000/svg">
<path fill-rule="evenodd" clip-rule="evenodd" d="M19.85 2.70711C20.2405 2.31658 20.2405 1.68342 19.85 1.29289C19.4594 0.902369 18.8263 0.902369 18.4357 1.29289L10.5714 9.15721L2.70711 1.29289C2.31658 0.902369 1.68342 0.902369 1.29289 1.29289C0.902369 1.68342 0.902369 2.31658 1.29289 2.70711L9.15721 10.5714L1.29289 18.4357C0.902369 18.8263 0.902369 19.4594 1.29289 19.85C1.68342 20.2405 2.31658 20.2405 2.70711 19.85L10.5714 11.9856L18.4357 19.85C18.8263 20.2405 19.4594 20.2405 19.85 19.85C20.2405 19.4594 20.2405 18.8263 19.85 18.4357L11.9856 10.5714L19.85 2.70711Z" fill="black"/>
<path d="M19.85 1.29289L19.1429 2L19.1429 2L19.85 1.29289ZM19.85 2.70711L19.1429 2L19.1429 2L19.85 2.70711ZM18.4357 1.29289L19.1429 2V2L18.4357 1.29289ZM10.5714 9.15721L9.86432 9.86432C10.2548 10.2548 10.888 10.2548 11.2785 9.86432L10.5714 9.15721ZM2.70711 1.29289L3.41421 0.585786V0.585786L2.70711 1.29289ZM1.29289 1.29289L2 2L2 2L1.29289 1.29289ZM1.29289 2.70711L0.585786 3.41421H0.585786L1.29289 2.70711ZM9.15721 10.5714L9.86432 11.2785C10.2548 10.888 10.2548 10.2548 9.86432 9.86432L9.15721 10.5714ZM1.29289 18.4357L2 19.1429H2L1.29289 18.4357ZM1.29289 19.85L2 19.1429L2 19.1429L1.29289 19.85ZM2.70711 19.85L2 19.1429L2 19.1429L2.70711 19.85ZM10.5714 11.9856L11.2785 11.2785C10.888 10.888 10.2548 10.888 9.86432 11.2785L10.5714 11.9856ZM18.4357 19.85L19.1429 19.1429L19.1429 19.1429L18.4357 19.85ZM19.85 19.85L19.1429 19.1429L19.1429 19.1429L19.85 19.85ZM19.85 18.4357L19.1429 19.1429L19.1429 19.1429L19.85 18.4357ZM11.9856 10.5714L11.2785 9.86432C10.888 10.2548 10.888 10.888 11.2785 11.2785L11.9856 10.5714ZM19.1429 2V2L20.5571 3.41421C21.3381 2.63317 21.3381 1.36683 20.5571 0.585785L19.1429 2ZM19.1429 2H19.1429L20.5571 0.585787C19.776 -0.195262 18.5097 -0.195262 17.7286 0.585787L19.1429 2ZM11.2785 9.86432L19.1429 2L17.7286 0.585786L9.86432 8.45011L11.2785 9.86432ZM2 2L9.86432 9.86432L11.2785 8.45011L3.41421 0.585786L2 2ZM2 2V2L3.41421 0.585786C2.63317 -0.195262 1.36684 -0.195262 0.585786 0.585787L2 2ZM2 2H2L0.585787 0.585786C-0.195262 1.36684 -0.195262 2.63317 0.585786 3.41421L2 2ZM9.86432 9.86432L2 2L0.585786 3.41421L8.45011 11.2785L9.86432 9.86432ZM2 19.1429L9.86432 11.2785L8.45011 9.86432L0.585786 17.7286L2 19.1429ZM2 19.1429V19.1429L0.585787 17.7286C-0.195262 18.5097 -0.195262 19.776 0.585787 20.5571L2 19.1429ZM2 19.1429H2L0.585785 20.5571C1.36683 21.3381 2.63317 21.3381 3.41421 20.5571L2 19.1429ZM9.86432 11.2785L2 19.1429L3.41421 20.5571L11.2785 12.6927L9.86432 11.2785ZM19.1429 19.1429L11.2785 11.2785L9.86432 12.6927L17.7286 20.5571L19.1429 19.1429ZM19.1429 19.1429H19.1429L17.7286 20.5571C18.5097 21.3381 19.776 21.3381 20.5571 20.5571L19.1429 19.1429ZM19.1429 19.1429V19.1429L20.5571 20.5571C21.3381 19.776 21.3381 18.5097 20.5571 17.7286L19.1429 19.1429ZM11.2785 11.2785L19.1429 19.1429L20.5571 17.7286L12.6927 9.86432L11.2785 11.2785ZM19.1429 2L11.2785 9.86432L12.6927 11.2785L20.5571 3.41421L19.1429 2Z" fill="black"/>
</svg>
