<svg width="92" height="92" viewBox="0 0 92 92" fill="none" xmlns="http://www.w3.org/2000/svg">
<g filter="url(#filter0_d_1324_126)">
<circle cx="46" cy="42" r="42" fill="#5FC90D"/>
<g filter="url(#filter1_d_1324_126)">
<path d="M38.9866 42.7256C38.6306 39.1677 38.0449 32.1504 37.3613 31.2902C37.3613 31.2902 41.6854 32.2133 43.856 28.818" stroke="white" stroke-width="2" stroke-miterlimit="10" stroke-linecap="round" stroke-linejoin="round"/>
<path d="M44.8352 53.148C44.8352 53.148 53.816 55.3938 60.8704 49.5506" stroke="white" stroke-width="2" stroke-miterlimit="10" stroke-linecap="round" stroke-linejoin="round"/>
<path d="M39.1952 51.1056C39.1952 51.1056 41.5804 39.0721 52.8038 37.4765C64.0273 35.881 69.6097 44.5554 69.6097 44.5554C69.6097 44.5554 69.8011 44.7844 70.0478 45.1959C71.7708 48.0696 71.0874 51.7924 68.5483 53.9786C59.4093 61.8472 46.5778 63.7165 29.8727 63.6203C29.8727 63.6203 26.7548 64.5727 26.0403 60.6488C26.0403 60.6488 25.401 43.2402 29.2144 31.0291C29.2144 31.0291 29.0511 26.0396 29.24 22.7743C29.2722 22.2173 29.5174 21.6959 29.9275 21.3176C34.7321 16.8851 36.8899 16.2336 36.8899 16.2336L43.8638 15C45.0577 15.8179 47.7927 18.9399 46.8325 24.5573" stroke="white" stroke-width="2" stroke-miterlimit="10" stroke-linecap="round" stroke-linejoin="round"/>
<path d="M37.4238 25.0524C37.4238 25.0524 38.9339 27.2066 40.4439 24.8167V22.3131L40.0615 20.9343L39.7617 20.7032" stroke="white" stroke-width="2" stroke-miterlimit="10" stroke-linecap="round" stroke-linejoin="round"/>
<path d="M40.7122 25.0523C40.7122 25.0523 42.2222 27.2066 43.7322 24.8166V22.313L43.0063 20.546" stroke="white" stroke-width="2" stroke-miterlimit="10" stroke-linecap="round" stroke-linejoin="round"/>
<path d="M46.7616 24.8167C45.1307 26.3871 44.0007 24.8167 44.0007 24.8167" stroke="white" stroke-width="2" stroke-miterlimit="10" stroke-linecap="round" stroke-linejoin="round"/>
<path d="M33.0273 22.6843C33.4462 23.049 33.9776 23.6991 34.0902 24.7068C34.117 24.946 34.1991 25.18 34.3695 25.35C34.8642 25.8438 35.9979 26.611 37.1317 24.8166V22.313L36.6036 21.2591" stroke="white" stroke-width="2" stroke-miterlimit="10" stroke-linecap="round" stroke-linejoin="round"/>
<path d="M49.7017 24.2161C51.303 24.6898 51.5821 27.065 49.1173 27.6243C43.856 28.818 43.856 28.818 43.856 28.818" stroke="white" stroke-width="2" stroke-miterlimit="10" stroke-linecap="round" stroke-linejoin="round"/>
</g>
</g>
<defs>
<filter id="filter0_d_1324_126" x="0" y="0" width="92" height="92" filterUnits="userSpaceOnUse" color-interpolation-filters="sRGB">
<feFlood flood-opacity="0" result="BackgroundImageFix"/>
<feColorMatrix in="SourceAlpha" type="matrix" values="0 0 0 0 0 0 0 0 0 0 0 0 0 0 0 0 0 0 127 0" result="hardAlpha"/>
<feOffset dy="4"/>
<feGaussianBlur stdDeviation="2"/>
<feComposite in2="hardAlpha" operator="out"/>
<feColorMatrix type="matrix" values="0 0 0 0 0 0 0 0 0 0 0 0 0 0 0 0 0 0 0.25 0"/>
<feBlend mode="normal" in2="BackgroundImageFix" result="effect1_dropShadow_1324_126"/>
<feBlend mode="normal" in="SourceGraphic" in2="effect1_dropShadow_1324_126" result="shape"/>
</filter>
<filter id="filter1_d_1324_126" x="21" y="14" width="55.0005" height="58.722" filterUnits="userSpaceOnUse" color-interpolation-filters="sRGB">
<feFlood flood-opacity="0" result="BackgroundImageFix"/>
<feColorMatrix in="SourceAlpha" type="matrix" values="0 0 0 0 0 0 0 0 0 0 0 0 0 0 0 0 0 0 127 0" result="hardAlpha"/>
<feOffset dy="4"/>
<feGaussianBlur stdDeviation="2"/>
<feComposite in2="hardAlpha" operator="out"/>
<feColorMatrix type="matrix" values="0 0 0 0 0 0 0 0 0 0 0 0 0 0 0 0 0 0 0.25 0"/>
<feBlend mode="normal" in2="BackgroundImageFix" result="effect1_dropShadow_1324_126"/>
<feBlend mode="normal" in="SourceGraphic" in2="effect1_dropShadow_1324_126" result="shape"/>
</filter>
</defs>
</svg>
