<svg width="198" height="198" viewBox="0 0 198 198" fill="none" xmlns="http://www.w3.org/2000/svg">
<circle cx="99" cy="99" r="99" fill="black"/>
<path d="M78.5671 69.5486C78.5671 67.8846 78.5671 67.0527 78.8389 66.3964C79.2014 65.5213 79.8966 64.8261 80.7717 64.4636C81.428 64.1918 82.2599 64.1918 83.9239 64.1918H116.065C117.729 64.1918 118.561 64.1918 119.217 64.4636C120.092 64.8261 120.788 65.5213 121.15 66.3964C121.422 67.0527 121.422 67.8846 121.422 69.5486C121.422 71.2126 121.422 72.0446 121.15 72.7009C120.788 73.5759 120.092 74.2712 119.217 74.6336C118.561 74.9055 117.729 74.9055 116.065 74.9055H83.9239C82.2599 74.9055 81.428 74.9055 80.7717 74.6336C79.8966 74.2712 79.2014 73.5759 78.8389 72.7009C78.5671 72.0446 78.5671 71.2126 78.5671 69.5486Z" fill="white" stroke="white" stroke-width="1.5"/>
<path d="M128.564 96.0054C128.564 91.6948 126.618 87.6147 123.268 84.9024L114.849 78.0875C112.903 76.5121 111.93 75.7244 110.773 75.3149C109.617 74.9055 108.365 74.9055 105.861 74.9055H94.2916C91.8105 74.9055 90.5699 74.9055 89.4221 75.3081C88.2743 75.7107 87.3055 76.4857 85.368 78.0357L76.7859 84.9014C73.3973 87.6123 71.4247 91.7165 71.4247 96.0561V101.69M128.564 110.618V119.778C128.564 123.091 127.413 126.301 125.306 128.859L124.027 130.412C121.313 133.708 117.269 135.616 113 135.616H89.127C87.0875 135.616 86.0677 135.616 85.101 135.484C82.2334 135.09 79.5531 133.835 77.415 131.884C76.6942 131.226 76.0413 130.443 74.7356 128.876C72.5963 126.309 71.4247 123.072 71.4247 119.731V115.975" fill="white"/>
<path d="M128.564 96.0054C128.564 91.6948 126.618 87.6147 123.268 84.9024L114.849 78.0875C112.903 76.5121 111.93 75.7244 110.773 75.3149C109.617 74.9055 108.365 74.9055 105.861 74.9055H94.2916C91.8105 74.9055 90.5699 74.9055 89.4221 75.3081C88.2743 75.7107 87.3055 76.4857 85.368 78.0357L76.7859 84.9014C73.3973 87.6123 71.4247 91.7165 71.4247 96.0561V101.69M128.564 110.618V119.778C128.564 123.091 127.413 126.301 125.306 128.859L124.027 130.412C121.313 133.708 117.269 135.616 113 135.616H89.127C87.0875 135.616 86.0677 135.616 85.101 135.484C82.2334 135.09 79.5531 133.835 77.415 131.884C76.6942 131.226 76.0413 130.443 74.7356 128.876C72.5963 126.309 71.4247 123.072 71.4247 119.731V115.975" stroke="white" stroke-width="1.5" stroke-linecap="round"/>
</svg>
