<svg width="198" height="198" viewBox="0 0 198 198" fill="none" xmlns="http://www.w3.org/2000/svg">
<circle cx="99" cy="99" r="99" fill="black" fill-opacity="0.25"/>
<path d="M78.5674 69.5486C78.5674 67.8846 78.5674 67.0526 78.8392 66.3964C79.2017 65.5213 79.8969 64.8261 80.772 64.4636C81.4283 64.1918 82.2603 64.1918 83.9242 64.1918H116.065C117.729 64.1918 118.561 64.1918 119.218 64.4636C120.093 64.8261 120.788 65.5213 121.15 66.3964C121.422 67.0526 121.422 67.8846 121.422 69.5486C121.422 71.2126 121.422 72.0446 121.15 72.7009C120.788 73.5759 120.093 74.2712 119.218 74.6336C118.561 74.9055 117.729 74.9055 116.065 74.9055H83.9242C82.2603 74.9055 81.4283 74.9055 80.772 74.6336C79.8969 74.2712 79.2017 73.5759 78.8392 72.7009C78.5674 72.0446 78.5674 71.2126 78.5674 69.5486Z" fill="white" stroke="white" stroke-width="1.5"/>
<path d="M128.565 96.0054C128.565 91.6948 126.618 87.6147 123.268 84.9025L114.849 78.0875C112.903 76.5121 111.93 75.7245 110.773 75.3149C109.617 74.9055 108.365 74.9055 105.861 74.9055H94.2918C91.8106 74.9055 90.57 74.9055 89.4222 75.3081C88.2744 75.7107 87.3057 76.4857 85.3681 78.0357L76.786 84.9014C73.3974 87.6123 71.4248 91.7166 71.4248 96.0561V101.69M128.565 110.618V119.778C128.565 123.091 127.413 126.301 125.307 128.859L124.027 130.412C121.314 133.708 117.269 135.616 113 135.616H89.1272C87.0876 135.616 86.0678 135.616 85.1011 135.484C82.2335 135.09 79.5532 133.835 77.4151 131.884C76.6943 131.226 76.0414 130.443 74.7357 128.876C72.5964 126.309 71.4248 123.072 71.4248 119.731V115.975" fill="white"/>
<path d="M128.565 96.0054C128.565 91.6948 126.618 87.6147 123.268 84.9025L114.849 78.0875C112.903 76.5121 111.93 75.7245 110.773 75.3149C109.617 74.9055 108.365 74.9055 105.861 74.9055H94.2918C91.8106 74.9055 90.57 74.9055 89.4222 75.3081C88.2744 75.7107 87.3057 76.4857 85.3681 78.0357L76.786 84.9014C73.3974 87.6123 71.4248 91.7166 71.4248 96.0561V101.69M128.565 110.618V119.778C128.565 123.091 127.413 126.301 125.307 128.859L124.027 130.412C121.314 133.708 117.269 135.616 113 135.616H89.1272C87.0876 135.616 86.0678 135.616 85.1011 135.484C82.2335 135.09 79.5532 133.835 77.4151 131.884C76.6943 131.226 76.0414 130.443 74.7357 128.876C72.5964 126.309 71.4248 123.072 71.4248 119.731V115.975" stroke="white" stroke-width="1.5" stroke-linecap="round"/>
</svg>
