<svg width="90" height="82" viewBox="0 0 90 82" fill="none" xmlns="http://www.w3.org/2000/svg">
<path d="M71.5536 1.15662L71.4048 0.993164H71.1838H19.4837H19.2626L19.1139 1.15662L3.13245 18.7165C1.98581 19.944 1.36595 21.5721 1.40593 23.2515C1.44592 24.9309 2.14254 26.5276 3.34626 27.6992C3.34711 27.7001 3.34797 27.7009 3.34883 27.7017L17.997 42.35V80.4247V80.9247H18.497H72.3678H72.8678V80.4247V42.35L87.521 27.6968L87.5245 27.6932C88.7008 26.4932 89.3597 24.8797 89.3597 23.1993C89.3597 21.5221 88.7033 19.9115 87.5311 18.7122L71.5536 1.15662ZM63.9746 26.7512V72.0315H26.6928V26.7512V25.5988L25.8513 26.3861L20.0872 31.7783L11.2953 22.9863L23.2561 9.88631H37.2489C37.7218 11.5827 38.7176 13.0911 40.0996 14.1936C41.5864 15.3796 43.4319 16.0256 45.3337 16.0256C47.2356 16.0256 49.0811 15.3796 50.5678 14.1936C51.9498 13.0911 52.9457 11.5827 53.4186 9.88631H67.4114L79.3722 22.9863L70.5802 31.7783L64.8162 26.3861L63.9746 25.5988V26.7512Z" fill="white" stroke="white"/>
</svg>
