<svg width="201" height="201" viewBox="0 0 201 201" fill="none" xmlns="http://www.w3.org/2000/svg">
<circle cx="100.5" cy="100.5" r="100.5" fill="black"/>
<path d="M126.554 61.1566L126.405 60.9932H126.184H74.4837H74.2626L74.1139 61.1566L58.1324 78.7165C56.9858 79.944 56.3659 81.5721 56.4059 83.2515C56.4459 84.9309 57.1425 86.5276 58.3463 87.6992C58.3471 87.7001 58.348 87.7009 58.3488 87.7017L72.997 102.35V140.425V140.925H73.497H127.368H127.868V140.425V102.35L142.521 87.6968L142.525 87.6932C143.701 86.4932 144.36 84.8797 144.36 83.1993C144.36 81.5221 143.703 79.9115 142.531 78.7122L126.554 61.1566ZM118.975 86.7512V132.032H81.6928V86.7512V85.5988L80.8513 86.3861L75.0872 91.7783L66.2953 82.9863L78.2561 69.8863H92.2489C92.7218 71.5827 93.7176 73.0911 95.0996 74.1936C96.5864 75.3796 98.4319 76.0256 100.334 76.0256C102.236 76.0256 104.081 75.3796 105.568 74.1936C106.95 73.0911 107.946 71.5827 108.419 69.8863H122.411L134.372 82.9863L125.58 91.7783L119.816 86.3861L118.975 85.5988V86.7512Z" fill="white" stroke="white"/>
</svg>
