<svg width="91" height="73" viewBox="0 0 91 73" fill="none" xmlns="http://www.w3.org/2000/svg">
<path d="M14.7875 13.6875H7.9625C6.07141 13.6875 4.55 15.2131 4.55 17.1094V31.9375H1.1375C0.511875 31.9375 0 32.4508 0 33.0781V39.9219C0 40.5492 0.511875 41.0625 1.1375 41.0625H4.55V55.8906C4.55 57.7869 6.07141 59.3125 7.9625 59.3125H14.7875C16.6786 59.3125 18.2 57.7869 18.2 55.8906V17.1094C18.2 15.2131 16.6786 13.6875 14.7875 13.6875ZM89.8625 31.9375H86.45V17.1094C86.45 15.2131 84.9286 13.6875 83.0375 13.6875H76.2125C74.3214 13.6875 72.8 15.2131 72.8 17.1094V55.8906C72.8 57.7869 74.3214 59.3125 76.2125 59.3125H83.0375C84.9286 59.3125 86.45 57.7869 86.45 55.8906V41.0625H89.8625C90.4881 41.0625 91 40.5492 91 39.9219V33.0781C91 32.4508 90.4881 31.9375 89.8625 31.9375ZM64.8375 4.5625H58.0125C56.1214 4.5625 54.6 6.08809 54.6 7.98438V31.9375H36.4V7.98438C36.4 6.08809 34.8786 4.5625 32.9875 4.5625H26.1625C24.2714 4.5625 22.75 6.08809 22.75 7.98438V65.0156C22.75 66.9119 24.2714 68.4375 26.1625 68.4375H32.9875C34.8786 68.4375 36.4 66.9119 36.4 65.0156V41.0625H54.6V65.0156C54.6 66.9119 56.1214 68.4375 58.0125 68.4375H64.8375C66.7286 68.4375 68.25 66.9119 68.25 65.0156V7.98438C68.25 6.08809 66.7286 4.5625 64.8375 4.5625Z" fill="white"/>
</svg>
