<svg fill="none" height="24" viewBox="0 0 24 24" width="24" xmlns="http://www.w3.org/2000/svg"><g stroke="#1c274c" stroke-width="1.5"><path d="m6 3.5c0-.46594 0-.69891.07612-.88268.10149-.24503.29617-.43971.5412-.5412.18377-.07612.41674-.07612.88268-.07612h9c.4659 0 .6989 0 .8827.07612.245.10149.4397.29617.5412.5412.0761.18377.0761.41674.0761.88268s0 .69891-.0761.88268c-.1015.24503-.2962.43971-.5412.5412-.1838.07612-.4168.07612-.8827.07612h-9c-.46594 0-.69891 0-.88268-.07612-.24503-.10149-.43971-.29617-.5412-.5412-.07612-.18377-.07612-.41674-.07612-.88268z"/><g stroke-linecap="round"><path d="m4.5 18h15"/><path d="m4.5 10h3.75m11.25 0h-7.5"/><path d="m20 10.9083c0-1.20704-.545-2.34953-1.4832-3.10899l-2.3573-1.90829c-.5449-.44113-.8174-.66169-1.1413-.77636-.3239-.11466-.6744-.11466-1.3755-.11466h-3.2396c-.69476 0-1.04215 0-1.36355.11274-.32141.11275-.59267.32976-1.13521.76378l-2.40312 1.9225c-.94886.75909-1.50122 1.90834-1.50122 3.12348v1.5775m16 2.5v2.5649c0 .9278-.3225 1.8267-.9123 2.5429l-.3583.435c-.7598.9227-1.8924 1.4572-3.0877 1.4572h-6.68477c-.57111 0-.85667 0-1.12736-.0372-.80296-.1102-1.55349-.4617-2.15219-1.008-.20184-.1842-.38466-.4035-.75027-.8423-.59905-.7188-.92711-1.625-.92711-2.5607v-1.0518"/><path d="m12 12v4m-2-2h4"/></g></g></svg>