<svg width="725" height="92" viewBox="0 0 725 92" fill="none" xmlns="http://www.w3.org/2000/svg">
<path d="M256.769 59C256.248 59 255.988 58.7135 255.988 58.1406V37.4531C255.988 36.8802 256.248 36.5938 256.769 36.5938H260.097C260.493 36.5938 260.79 36.9062 260.988 37.5312L265.456 51.5469C265.915 52.9844 266.185 53.8542 266.269 54.1562C266.352 54.4479 266.472 54.9896 266.628 55.7812H266.722C266.878 54.9896 266.998 54.4479 267.081 54.1562C267.165 53.8542 267.435 52.9844 267.894 51.5469L272.363 37.5312C272.56 36.9062 272.857 36.5938 273.253 36.5938H276.581C277.102 36.5938 277.363 36.8802 277.363 37.4531V58.1406C277.363 58.7135 277.102 59 276.581 59H275.144C274.623 59 274.363 58.7135 274.363 58.1406V41.75C274.363 41.3333 274.373 40.9167 274.394 40.5H274.331L268.566 58.0469C268.357 58.6823 268.014 59 267.534 59H265.816C265.336 59 264.993 58.6823 264.784 58.0469L259.019 40.5H258.956C258.977 40.9167 258.988 41.3333 258.988 41.75V58.1406C258.988 58.7135 258.727 59 258.206 59H256.769ZM281.715 50.4531V37.4531C281.715 36.8802 281.975 36.5938 282.496 36.5938H283.934C284.455 36.5938 284.715 36.8802 284.715 37.4531V49.9844C284.715 52.901 285.126 54.8073 285.949 55.7031C286.783 56.5885 288.137 57.0312 290.012 57.0312C291.887 57.0312 293.236 56.5885 294.059 55.7031C294.892 54.8073 295.309 52.901 295.309 49.9844V37.4531C295.309 36.8802 295.569 36.5938 296.09 36.5938H297.527C298.048 36.5938 298.309 36.8802 298.309 37.4531V50.4531C298.309 53.7552 297.548 56.0833 296.027 57.4375C294.517 58.7917 292.512 59.4688 290.012 59.4688C287.512 59.4688 285.501 58.7917 283.981 57.4375C282.47 56.0833 281.715 53.7552 281.715 50.4531ZM302.599 57.3125C302.047 56.8125 301.901 56.375 302.161 56L302.974 54.8281C303.255 54.4219 303.708 54.4531 304.333 54.9219C305.156 55.5365 306.01 56.0417 306.896 56.4375C307.791 56.8333 308.875 57.0312 310.146 57.0312C311.083 57.0312 311.875 56.8906 312.521 56.6094C313.166 56.3281 313.682 55.9271 314.068 55.4062C314.463 54.875 314.661 54.2344 314.661 53.4844C314.661 52.9427 314.578 52.4427 314.411 51.9844C314.255 51.5156 314 51.125 313.646 50.8125C313.291 50.5 312.922 50.2552 312.536 50.0781C311.901 49.7865 310.948 49.4479 309.677 49.0625C308.416 48.6771 307.312 48.2604 306.364 47.8125C305.427 47.3646 304.677 46.8229 304.114 46.1875C303.562 45.5521 303.193 44.901 303.005 44.2344C302.828 43.5573 302.739 42.7865 302.739 41.9219C302.739 40.599 303.125 39.4583 303.896 38.5C304.666 37.5417 305.609 36.9062 306.724 36.5938C307.849 36.2812 308.989 36.125 310.146 36.125C311.469 36.125 312.62 36.2969 313.599 36.6406C314.578 36.9844 315.453 37.4323 316.224 37.9844C316.765 38.3698 316.89 38.776 316.599 39.2031L315.802 40.3438C315.562 40.6875 315.094 40.6146 314.396 40.125C313.864 39.75 313.213 39.401 312.443 39.0781C311.682 38.7448 310.927 38.5781 310.177 38.5781C309.219 38.5781 308.422 38.6927 307.786 38.9219C307.151 39.1406 306.651 39.5156 306.286 40.0469C305.922 40.5781 305.739 41.1927 305.739 41.8906C305.739 42.3281 305.781 42.7344 305.864 43.1094C305.948 43.474 306.161 43.849 306.505 44.2344C306.849 44.6198 307.265 44.9167 307.755 45.125C308.411 45.4062 309.427 45.7396 310.802 46.125C312.187 46.5 313.396 46.9635 314.427 47.5156C315.385 48.026 316.073 48.5625 316.489 49.125C316.916 49.6771 317.245 50.2812 317.474 50.9375C317.713 51.5833 317.833 52.3125 317.833 53.125C317.833 54.6042 317.453 55.8385 316.693 56.8281C315.932 57.8177 315.031 58.5052 313.989 58.8906C312.948 59.276 311.64 59.4688 310.068 59.4688C308.182 59.4688 306.62 59.25 305.38 58.8125C304.14 58.375 303.213 57.875 302.599 57.3125ZM319.608 47.7969C319.608 44.151 320.509 41.2969 322.311 39.2344C324.123 37.1615 326.722 36.125 330.108 36.125C332.087 36.125 333.722 36.4635 335.014 37.1406C336.305 37.8073 337.233 38.724 337.795 39.8906C338.087 40.4948 338.04 40.9115 337.654 41.1406L336.42 41.8594C336.003 42.099 335.634 41.901 335.311 41.2656C334.967 40.6094 334.404 39.9948 333.623 39.4219C332.842 38.849 331.722 38.5625 330.264 38.5625C327.66 38.5625 325.764 39.375 324.576 41C323.399 42.6146 322.811 44.8802 322.811 47.7969C322.811 50.7135 323.399 52.9844 324.576 54.6094C325.764 56.224 327.66 57.0312 330.264 57.0312C331.764 57.0312 332.962 56.6875 333.858 56C334.764 55.3125 335.42 54.5938 335.826 53.8438C336.149 53.2396 336.524 53.0573 336.951 53.2969L338.248 54.0312C338.623 54.25 338.654 54.6667 338.342 55.2812C337.727 56.4792 336.727 57.4792 335.342 58.2812C333.956 59.0729 332.212 59.4688 330.108 59.4688C326.722 59.4688 324.123 58.4375 322.311 56.375C320.509 54.3021 319.608 51.4427 319.608 47.7969ZM342.554 59C342.033 59 341.773 58.7135 341.773 58.1406V37.4531C341.773 36.8802 342.033 36.5938 342.554 36.5938H343.991C344.512 36.5938 344.773 36.8802 344.773 37.4531V56.4375H355.132C355.705 56.4375 355.991 56.6719 355.991 57.1406V58.2969C355.991 58.7656 355.705 59 355.132 59H342.554ZM359.344 59C358.823 59 358.562 58.7135 358.562 58.1406V37.4531C358.562 36.8802 358.823 36.5938 359.344 36.5938H373.016C373.589 36.5938 373.875 36.8281 373.875 37.2969V38.4531C373.875 38.9219 373.589 39.1562 373.016 39.1562H361.562V46.0938H372.078C372.651 46.0938 372.938 46.3281 372.938 46.7969V47.9531C372.938 48.4219 372.651 48.6562 372.078 48.6562H361.562V56.4375H373.484C374.057 56.4375 374.344 56.6719 374.344 57.1406V58.2969C374.344 58.7656 374.057 59 373.484 59H359.344ZM386.018 59C385.476 59 385.335 58.6562 385.596 57.9688L393.377 37.5469C393.616 36.9115 393.96 36.5938 394.408 36.5938H396.596C397.044 36.5938 397.387 36.9115 397.627 37.5469L405.408 57.9688C405.669 58.6562 405.528 59 404.986 59H403.393C402.84 59 402.465 58.7448 402.268 58.2344L400.314 53.0625H390.689L388.736 58.2344C388.538 58.7448 388.163 59 387.611 59H386.018ZM391.674 50.5H399.33L396.939 44.25C396.721 43.6667 396.502 43.0208 396.283 42.3125C396.075 41.6042 395.825 40.599 395.533 39.2969H395.471C395.179 40.599 394.924 41.6042 394.705 42.3125C394.497 43.0208 394.283 43.6667 394.064 44.25L391.674 50.5ZM408.214 59C407.693 59 407.432 58.7135 407.432 58.1406V37.4531C407.432 36.8802 407.693 36.5938 408.214 36.5938H415.761C418.771 36.5938 420.948 37.1562 422.292 38.2812C423.646 39.4062 424.323 40.8906 424.323 42.7344C424.323 44.3594 423.776 45.724 422.682 46.8281C421.599 47.9323 420.052 48.5677 418.042 48.7344V48.7656C419.104 49.5573 419.807 50.1615 420.151 50.5781C420.495 50.9844 420.88 51.5365 421.307 52.2344L424.839 57.9688C425.266 58.6562 425.172 59 424.557 59H422.776C422.287 59 421.922 58.7969 421.682 58.3906L418.432 52.8125C417.964 52.0104 417.292 51.224 416.417 50.4531C415.542 49.6823 414.453 49.2969 413.151 49.2969H410.432V58.1406C410.432 58.7135 410.172 59 409.651 59H408.214ZM410.432 46.7344H414.948C416.979 46.7344 418.542 46.4688 419.636 45.9375C420.729 45.3958 421.276 44.2656 421.276 42.5469C421.276 41.2344 420.776 40.3438 419.776 39.875C418.776 39.3958 417.417 39.1562 415.698 39.1562H410.432V46.7344ZM429.035 59C428.514 59 428.254 58.7135 428.254 58.1406V37.4531C428.254 36.8802 428.514 36.5938 429.035 36.5938H432.363C432.759 36.5938 433.056 36.9062 433.254 37.5312L437.723 51.5469C438.181 52.9844 438.452 53.8542 438.535 54.1562C438.618 54.4479 438.738 54.9896 438.894 55.7812H438.988C439.144 54.9896 439.264 54.4479 439.348 54.1562C439.431 53.8542 439.702 52.9844 440.16 51.5469L444.629 37.5312C444.827 36.9062 445.124 36.5938 445.519 36.5938H448.848C449.368 36.5938 449.629 36.8802 449.629 37.4531V58.1406C449.629 58.7135 449.368 59 448.848 59H447.41C446.889 59 446.629 58.7135 446.629 58.1406V41.75C446.629 41.3333 446.639 40.9167 446.66 40.5H446.598L440.832 58.0469C440.624 58.6823 440.28 59 439.801 59H438.082C437.603 59 437.259 58.6823 437.051 58.0469L431.285 40.5H431.223C431.243 40.9167 431.254 41.3333 431.254 41.75V58.1406C431.254 58.7135 430.993 59 430.473 59H429.035ZM452.841 37.625C452.393 36.9375 452.533 36.5938 453.263 36.5938H455.013C455.471 36.5938 455.846 36.849 456.138 37.3594L460.106 44.1875C460.544 44.9375 460.919 45.5938 461.231 46.1562C461.544 46.7083 461.846 47.2969 462.138 47.9219H462.2C462.492 47.2969 462.794 46.7083 463.106 46.1562C463.419 45.5938 463.794 44.9375 464.231 44.1875L468.2 37.3594C468.492 36.849 468.867 36.5938 469.325 36.5938H471.075C471.804 36.5938 471.945 36.9375 471.497 37.625L463.669 49.7812V58.1406C463.669 58.7135 463.408 59 462.888 59H461.45C460.929 59 460.669 58.7135 460.669 58.1406V49.7812L452.841 37.625Z" fill="white"/>
<g filter="url(#filter0_d_625_229)">
<circle cx="187" cy="42" r="42" fill="#5FC90D"/>
<g filter="url(#filter1_d_625_229)">
<path d="M179.986 42.7256C179.63 39.1677 179.045 32.1504 178.361 31.2902C178.361 31.2902 182.685 32.2133 184.856 28.818" stroke="white" stroke-width="2" stroke-miterlimit="10" stroke-linecap="round" stroke-linejoin="round"/>
<path d="M185.835 53.148C185.835 53.148 194.816 55.3938 201.87 49.5506" stroke="white" stroke-width="2" stroke-miterlimit="10" stroke-linecap="round" stroke-linejoin="round"/>
<path d="M180.195 51.1056C180.195 51.1056 182.58 39.0721 193.804 37.4765C205.027 35.881 210.61 44.5554 210.61 44.5554C210.61 44.5554 210.801 44.7844 211.048 45.1959C212.771 48.0696 212.087 51.7924 209.548 53.9786C200.409 61.8472 187.578 63.7165 170.873 63.6203C170.873 63.6203 167.755 64.5727 167.04 60.6488C167.04 60.6488 166.401 43.2402 170.214 31.0291C170.214 31.0291 170.051 26.0396 170.24 22.7743C170.272 22.2173 170.517 21.6959 170.928 21.3176C175.732 16.8851 177.89 16.2336 177.89 16.2336L184.864 15C186.058 15.8179 188.793 18.9399 187.833 24.5573" stroke="white" stroke-width="2" stroke-miterlimit="10" stroke-linecap="round" stroke-linejoin="round"/>
<path d="M178.424 25.0524C178.424 25.0524 179.934 27.2066 181.444 24.8167V22.3131L181.061 20.9343L180.762 20.7032" stroke="white" stroke-width="2" stroke-miterlimit="10" stroke-linecap="round" stroke-linejoin="round"/>
<path d="M181.712 25.0523C181.712 25.0523 183.222 27.2066 184.732 24.8166V22.313L184.006 20.546" stroke="white" stroke-width="2" stroke-miterlimit="10" stroke-linecap="round" stroke-linejoin="round"/>
<path d="M187.762 24.8167C186.131 26.3871 185.001 24.8167 185.001 24.8167" stroke="white" stroke-width="2" stroke-miterlimit="10" stroke-linecap="round" stroke-linejoin="round"/>
<path d="M174.027 22.6843C174.446 23.049 174.978 23.6991 175.09 24.7068C175.117 24.946 175.199 25.18 175.37 25.35C175.864 25.8438 176.998 26.611 178.132 24.8166V22.313L177.604 21.2591" stroke="white" stroke-width="2" stroke-miterlimit="10" stroke-linecap="round" stroke-linejoin="round"/>
<path d="M190.702 24.2161C192.303 24.6898 192.582 27.065 190.117 27.6243C184.856 28.818 184.856 28.818 184.856 28.818" stroke="white" stroke-width="2" stroke-miterlimit="10" stroke-linecap="round" stroke-linejoin="round"/>
</g>
</g>
<defs>
<filter id="filter0_d_625_229" x="141" y="0" width="92" height="92" filterUnits="userSpaceOnUse" color-interpolation-filters="sRGB">
<feFlood flood-opacity="0" result="BackgroundImageFix"/>
<feColorMatrix in="SourceAlpha" type="matrix" values="0 0 0 0 0 0 0 0 0 0 0 0 0 0 0 0 0 0 127 0" result="hardAlpha"/>
<feOffset dy="4"/>
<feGaussianBlur stdDeviation="2"/>
<feComposite in2="hardAlpha" operator="out"/>
<feColorMatrix type="matrix" values="0 0 0 0 0 0 0 0 0 0 0 0 0 0 0 0 0 0 0.25 0"/>
<feBlend mode="normal" in2="BackgroundImageFix" result="effect1_dropShadow_625_229"/>
<feBlend mode="normal" in="SourceGraphic" in2="effect1_dropShadow_625_229" result="shape"/>
</filter>
<filter id="filter1_d_625_229" x="162" y="14" width="55.0005" height="58.722" filterUnits="userSpaceOnUse" color-interpolation-filters="sRGB">
<feFlood flood-opacity="0" result="BackgroundImageFix"/>
<feColorMatrix in="SourceAlpha" type="matrix" values="0 0 0 0 0 0 0 0 0 0 0 0 0 0 0 0 0 0 127 0" result="hardAlpha"/>
<feOffset dy="4"/>
<feGaussianBlur stdDeviation="2"/>
<feComposite in2="hardAlpha" operator="out"/>
<feColorMatrix type="matrix" values="0 0 0 0 0 0 0 0 0 0 0 0 0 0 0 0 0 0 0.25 0"/>
<feBlend mode="normal" in2="BackgroundImageFix" result="effect1_dropShadow_625_229"/>
<feBlend mode="normal" in="SourceGraphic" in2="effect1_dropShadow_625_229" result="shape"/>
</filter>
</defs>
</svg>
