<svg width="60" height="74" viewBox="0 0 60 74" fill="none" xmlns="http://www.w3.org/2000/svg">
<path d="M8.56708 6.54862C8.56708 4.88464 8.56708 4.05265 8.83892 3.39637C9.20136 2.52131 9.89661 1.82606 10.7717 1.46361C11.428 1.19177 12.2599 1.19177 13.9239 1.19177H46.065C47.7289 1.19177 48.561 1.19177 49.2174 1.46361C50.0923 1.82606 50.7876 2.52131 51.1501 3.39637C51.4219 4.05265 51.4219 4.88464 51.4219 6.54862C51.4219 8.2126 51.4219 9.04459 51.1501 9.70088C50.7876 10.5759 50.0923 11.2712 49.2174 11.6336C48.561 11.9055 47.7289 11.9055 46.065 11.9055H13.9239C12.2599 11.9055 11.428 11.9055 10.7717 11.6336C9.89661 11.2712 9.20136 10.5759 8.83892 9.70088C8.56708 9.04459 8.56708 8.2126 8.56708 6.54862Z" fill="white" stroke="white" stroke-width="1.5"/>
<path d="M58.5644 33.0054C58.5644 28.6948 56.6181 24.6147 53.2676 21.9024L44.8491 15.0875C42.9031 13.5121 41.93 12.7244 40.7733 12.3149C39.6165 11.9055 38.3648 11.9055 35.861 11.9055H24.2916C21.8105 11.9055 20.5699 11.9055 19.4221 12.3081C18.2743 12.7107 17.3055 13.4857 15.368 15.0357L6.78589 21.9014C3.39729 24.6123 1.42468 28.7165 1.42468 33.0561V38.6897M58.5644 47.6178V56.7776C58.5644 60.091 57.4127 63.3012 55.3064 65.8589L54.0268 67.4124C51.3134 70.7076 47.2686 72.6164 42.9999 72.6164H19.127C17.0875 72.6164 16.0677 72.6164 15.101 72.4836C12.2334 72.09 9.5531 70.8347 7.415 68.8838C6.69418 68.226 6.04129 67.4428 4.73561 65.8757C2.59626 63.3087 1.42468 60.0725 1.42468 56.7309V52.9746" fill="white"/>
<path d="M58.5644 33.0054C58.5644 28.6948 56.6181 24.6147 53.2676 21.9024L44.8491 15.0875C42.9031 13.5121 41.93 12.7244 40.7733 12.3149C39.6165 11.9055 38.3648 11.9055 35.861 11.9055H24.2916C21.8105 11.9055 20.5699 11.9055 19.4221 12.3081C18.2743 12.7107 17.3055 13.4857 15.368 15.0357L6.78589 21.9014C3.39729 24.6123 1.42468 28.7165 1.42468 33.0561V38.6897M58.5644 47.6178V56.7776C58.5644 60.091 57.4127 63.3012 55.3064 65.8589L54.0268 67.4124C51.3134 70.7076 47.2686 72.6164 42.9999 72.6164H19.127C17.0875 72.6164 16.0677 72.6164 15.101 72.4836C12.2334 72.09 9.5531 70.8347 7.415 68.8838C6.69418 68.226 6.04129 67.4428 4.73561 65.8757C2.59626 63.3087 1.42468 60.0725 1.42468 56.7309V52.9746" stroke="white" stroke-width="1.5" stroke-linecap="round"/>
</svg>
